<svg xmlns="http://www.w3.org/2000/svg" width="225" height="150" preserveAspectRatio="xMidYMid" viewBox="0 0 225 150">
  <defs>
    <filter id="filter">
      <feFlood flood-color="#ff0" flood-opacity="1" result="f0"/>
      <feFlood flood-color="#f0f" flood-opacity="1" result="f1"/>
      <feComposite in="f0" in2="SourceAlpha" operator="in" result="c0"/>
      <feComposite in="f1" in2="SourceAlpha" operator="in" result="c1"/>
      <feOffset dx="-3" dy="-3" in="c0" result="o0"/>
      <feOffset dx="3" dy="3" in="c1" result="o1"/>
      <feBlend in="SourceGraphic" in2="o0" mode="multiply" result="b0"/>
      <feBlend in="b0" in2="o1" mode="multiply" result="b1"/>
    </filter>
  </defs>
  <path d="M40.25 23.438c-.083-.209-.104-.355-.063-.438.042-.083.063-.25.063-.5-.458-.25-.906-.313-1.344-.188a7.28 7.28 0 0 1-1.343.25 7.99 7.99 0 0 1-1.594-.187c-.604-.125-1.23-.25-1.875-.375a20.351 20.351 0 0 0-1.969-.281 6.66 6.66 0 0 0-1.938.093c-.333.084-.812.282-1.437.594-.625.313-1.083.552-1.375.719-.958.583-1.646 1.437-2.063 2.563a47.333 47.333 0 0 0-1.125 3.437 3.485 3.485 0 0 1-.53.438 1.062 1.062 0 0 0-.407.5c0 .291.115.52.344.687.229.167.385.375.468.625.25.625.48 1.25.688 1.875.208.625.48 1.208.813 1.75.541.833 1.302 1.5 2.28 2 .98.5 1.97.98 2.97 1.438.708.375 1.322.656 1.843.843.521.188 1.136.448 1.844.782.417.208.792.354 1.125.437.333.083.646.187.938.313.291.125.562.28.812.468s.52.448.813.782c.25.25.49.5.718.75.23.25.448.479.657.687.458.458.78.885.968 1.281.188.396.573.74 1.157 1.032.083.416.27.76.562 1.03.292.272.48.574.563.907.083.458.02.854-.188 1.188a1.738 1.738 0 0 0-.25 1.124c.042.376.177.678.406.907.23.229.386.51.469.843.083.334.083.709 0 1.126a7.126 7.126 0 0 1-.375 1.25A12.93 12.93 0 0 0 42.406 56c-.104.583-.24 1.146-.406 1.688a6.752 6.752 0 0 1-.688 1.53c-.291.48-.729.907-1.312 1.282a4.05 4.05 0 0 1-.531.219 4.05 4.05 0 0 0-.532.218 1.467 1.467 0 0 0-.5.313c-.125.125-.25.23-.374.313a2.297 2.297 0 0 1-.532.187 2.297 2.297 0 0 0-.531.188c-.25.125-.48.28-.688.468a1.937 1.937 0 0 1-.687.407c-.417.208-.73.49-.938.843-.208.354-.583.636-1.124.844a3.26 3.26 0 0 0-1.126.813c-.291.333-.624.541-1 .624a4.37 4.37 0 0 1-1.937-.062 8.219 8.219 0 0 0-2-.25 9.906 9.906 0 0 0-2.063.094c-.708.104-1.416.177-2.125.219-.75.083-1.552.177-2.406.28-.854.105-1.573.095-2.156-.03a30.62 30.62 0 0 1-1.938-.407 49.9 49.9 0 0 1-2.375-.625 25.1 25.1 0 0 1-2.218-.75c-.688-.27-1.177-.552-1.469-.844a2.715 2.715 0 0 1-.531-.78A2.715 2.715 0 0 0 9.688 62c-.459-.458-1-.906-1.626-1.344-.625-.437-1.083-.906-1.374-1.406a3.502 3.502 0 0 1-.282-.781c-.062-.271-.135-.552-.218-.844a2.884 2.884 0 0 0-.375-.813c-.167-.25-.271-.479-.313-.687a.88.88 0 0 1 .125-.656c.125-.188.208-.386.25-.594.083-.458.135-.917.156-1.375.021-.458.198-.875.532-1.25.375-.083.895-.292 1.562-.625a12.717 12.717 0 0 1 1.906-.781c.604-.188 1.084-.24 1.438-.157.354.084.385.5.094 1.25.416.25.708.573.874.97.167.395.282.812.344 1.25.063.437.125.905.188 1.406.062.5.198.979.406 1.437.208.5.635.917 1.281 1.25.646.333 1.136.687 1.469 1.063a4.817 4.817 0 0 1 1.75.187c.542.167 1.073.344 1.594.531.52.188 1.062.354 1.625.5.562.146 1.177.177 1.843.094.25-.042.51-.26.782-.656.27-.396.531-.615.781-.657 1.083-.25 2.083-.395 3-.437.917-.042 1.73-.375 2.438-1 .541-.458.968-.896 1.28-1.313.313-.416.49-.916.532-1.5.042-.666-.031-1.197-.219-1.593a2.556 2.556 0 0 0-.781-.969 6.78 6.78 0 0 0-1.156-.688A6.591 6.591 0 0 1 28.312 51a6.09 6.09 0 0 1-.718-.563 2.245 2.245 0 0 0-.657-.437 18.894 18.894 0 0 0-2.718-.969c-.98-.27-1.886-.593-2.719-.968-.417-.209-.77-.584-1.063-1.126-.291-.541-.666-.854-1.125-.937a.975.975 0 0 0-.687 0c-.25.083-.52.104-.813.063-.333-.042-.78-.23-1.343-.563-.563-.333-.948-.604-1.157-.813a1.434 1.434 0 0 1-.312-.53 1.603 1.603 0 0 0-.375-.594 7.18 7.18 0 0 0-.938-1c-.333-.292-.562-.605-.687-.938a3.203 3.203 0 0 1-.156-.688 2.292 2.292 0 0 0-.156-.624 1.668 1.668 0 0 0-.313-.438 4.08 4.08 0 0 1-.375-.438 1.75 1.75 0 0 1-.125-.656c0-.229-.042-.468-.125-.718-.25-.75-.5-1.407-.75-1.97-.25-.562-.333-1.343-.25-2.343.042-.667.01-1.187-.094-1.563-.104-.375-.094-.791.031-1.25.084-.333.167-.635.25-.906.084-.27.188-.573.313-.906.083-.292.135-.583.156-.875.021-.292.073-.542.156-.75.126-.208.303-.437.532-.688.229-.25.427-.5.594-.75.458-.708.916-1.427 1.374-2.156a6.112 6.112 0 0 1 1.813-1.843c.333-.667.937-1.344 1.813-2.032.875-.687 1.75-1.218 2.625-1.593.958-.459 2.02-.948 3.187-1.47 1.167-.52 2.167-.864 3-1.03a9.237 9.237 0 0 1 1.813-.188h1.875c1.041-.042 1.854-.042 2.437 0 .583.042 1.292.125 2.125.25a7.95 7.95 0 0 0 1.094.188c.396.041.74.104 1.031.187.208.083.375.177.5.281.125.104.333.177.625.219.458.042.927-.01 1.406-.156.48-.146.948-.198 1.407-.157.833.084 1.51.292 2.03.625.522.334 1.115.688 1.782 1.063.375.208.75.396 1.125.563.375.166.667.354.875.562.25.25.5.604.75 1.063a14.292 14.292 0 0 1 1.219 3.063c.146.54.218.999.218 1.374 0 .208-.02.396-.062.563a2.324 2.324 0 0 0-.063.562c.042.333.167.708.376 1.125.208.417.27.854.187 1.313a1.07 1.07 0 0 1-.469.78c-.27.188-.51.428-.718.72-.167.25-.292.53-.376.843a2.1 2.1 0 0 1-.374.782 8.593 8.593 0 0 1-.594.75 1.871 1.871 0 0 0-.407.75c-.416.458-1.052.864-1.906 1.218-.854.354-1.802.636-2.843.844a16.055 16.055 0 0 1-3.157.313c-1.062 0-1.99-.125-2.781-.376a2.029 2.029 0 0 1-.594-.374 1.861 1.861 0 0 0-.656-.376 4.75 4.75 0 0 0-.781-.187 1.444 1.444 0 0 1-.657-.25c-.25-.167-.614-.552-1.093-1.156-.48-.604-.76-1.073-.844-1.407a1.708 1.708 0 0 1-.219-.968c.021-.354.052-.74.094-1.157.083-.375.156-.843.219-1.406.062-.562.218-.948.468-1.156.084-.083.271-.187.563-.313.292-.125.604-.125.938 0 .333.084.624.313.874.688.25.375.5.781.75 1.219.25.437.51.854.782 1.25.27.396.573.677.906.843.5.292 1.115.448 1.844.47.729.02 1.323-.074 1.781-.282.792-.25 1.385-.667 1.781-1.25.396-.583.594-1.23.594-1.938s-.177-1.406-.531-2.093c-.354-.688-.886-1.281-1.594-1.782zm42.625 7.875c-.083.666-.323 1.083-.719 1.25-.396.166-.802.354-1.219.562-.291.208-.5.48-.624.813-.126.333-.292.583-.5.75-.209.208-.51.364-.907.468-.396.104-.718.198-.969.282a7.823 7.823 0 0 1-2.218.312c-.771 0-1.448.042-2.031.125-.334.083-.667.27-1 .563-.334.291-.688.52-1.063.687-.375.125-.667.23-.875.313a1.883 1.883 0 0 0-.531.312 2.27 2.27 0 0 0-.406.469c-.126.187-.292.448-.5.781-.209.375-.313.917-.313 1.625s-.062 1.292-.188 1.75c-.125.375-.26.812-.406 1.313-.146.5-.302 1.041-.469 1.624a4.505 4.505 0 0 0-.124 1.094c0 .396-.042.76-.126 1.094-.125.417-.322.73-.593.938-.271.208-.469.583-.594 1.124-.083.25-.115.51-.094.782.021.27.01.531-.031.781-.167 1-.365 2.083-.594 3.25a322.68 322.68 0 0 0-.656 3.438 67.25 67.25 0 0 1-.656 2.75c-.23.875-.51 1.687-.844 2.437-.333-.042-.667.052-1 .281-.333.23-.667.386-1 .469a3.067 3.067 0 0 1-.844.125c-.27 0-.531.104-.781.313-.292.291-.667.677-1.125 1.156-.458.479-.854.76-1.188.844-.291.083-.552.083-.78 0A4.523 4.523 0 0 0 56.25 66c-.333 0-.656.01-.969.031-.312.021-.677.01-1.093-.031A2.894 2.894 0 0 1 54 64.656c.042-.479.135-.948.281-1.406.146-.458.313-.906.5-1.344.188-.437.323-.864.407-1.281.083-.292.135-.604.156-.938a3.45 3.45 0 0 1 .218-1c.126-.375.323-.718.594-1.03.271-.313.469-.678.594-1.094.167-.459.375-1 .625-1.626.25-.625.396-1.145.438-1.562.083-.5.072-.98-.032-1.438-.104-.458-.073-.958.094-1.5.083-.25.198-.468.344-.656.146-.187.26-.448.343-.781a8 8 0 0 0 .25-1.469c.042-.52.105-1.031.188-1.531.083-.458.167-.906.25-1.344.083-.437.187-.885.313-1.343.125-.542.26-1.053.406-1.532.146-.479.27-.948.375-1.406.104-.458.156-.906.156-1.344 0-.437-.125-.906-.375-1.406-.25-.458-.583-.792-1-1a3.738 3.738 0 0 0-1.375-.375c-.5-.042-1.042-.042-1.625 0s-1.146.063-1.688.063c-.208-.126-.395-.355-.562-.688-.167-.333-.396-.562-.688-.688a5.213 5.213 0 0 0-1.656-.25c-.604 0-1.052-.229-1.343-.687-.25-.625-.26-1.23-.032-1.813.23-.583.51-1 .844-1.25 1.542-.25 3.146-.24 4.813.032 1.666.27 3.333.385 5 .343a8.455 8.455 0 0 0 2-.375 3.48 3.48 0 0 1 2.062 0c.208.084.573.22 1.094.407.52.187.885.323 1.094.406.208.042.416.042.624 0 .209-.042.417-.042.626 0 .333 0 .656.052.968.156.313.104.636.157.969.157.417 0 .719-.01.906-.032a3.06 3.06 0 0 0 .5-.093c.146-.042.302-.094.469-.157.167-.062.437-.114.813-.156.333-.042.666-.02 1 .063a4.11 4.11 0 0 0 1 .125 7.58 7.58 0 0 0 2.656-.344c.854-.271 1.698-.448 2.531-.532.458-.041.927-.052 1.406-.03.48.02.927.155 1.344.405zm7.625.437c.042.208.052.615.031 1.219a89.14 89.14 0 0 1-.094 2c-.041.729-.052 1.448-.03 2.156.02.708.114 1.25.28 1.625.084.208.209.375.376.5.166.125.291.27.374.438.25.458.407.958.47 1.5.062.541.239 1.02.53 1.437-.083.25-.208.437-.374.563a1.138 1.138 0 0 0-.376.5c.334.375.584.791.75 1.25.167.458.146 1.104-.062 1.937.375.083.635.25.781.5.146.25.25.542.313.875.062.333.114.656.156.969.042.312.167.573.375.781.292 0 .458-.062.5-.188.042-.125.167-.187.375-.187.417-.542.844-1.167 1.281-1.875a91.09 91.09 0 0 1 1.375-2.156c.48-.73.959-1.427 1.438-2.094.479-.667.968-1.23 1.469-1.688.125-.125.291-.24.5-.343a.93.93 0 0 0 .437-.407c.292-.416.48-.99.563-1.718.083-.73.229-1.323.437-1.782a5.44 5.44 0 0 1 .875-1.5c.375-.458.73-.958 1.063-1.5.25-.458.479-.864.687-1.218a3.94 3.94 0 0 1 .719-.907c.27-.25.593-.447.969-.593.375-.146.854-.24 1.437-.282.292 0 .562.053.813.157.25.104.52.156.812.156.792 0 1.625-.073 2.5-.219.875-.146 1.76-.302 2.656-.468a16.55 16.55 0 0 1 2.625-.282 8.072 8.072 0 0 1 2.531.344c.084.583-.114 1-.593 1.25-.48.25-.906.48-1.281.688-.459.291-.948.614-1.47.968-.52.354-.947.719-1.28 1.094-.209.25-.396.52-.563.813a5.625 5.625 0 0 1-.563.812 67.891 67.891 0 0 0-1.968 2.344 12.16 12.16 0 0 0-1.719 2.906 16.588 16.588 0 0 1-2.031 2.375c-.771.75-1.51 1.604-2.219 2.563-.375.5-.719 1.052-1.031 1.656a21.895 21.895 0 0 1-1.031 1.781 90.176 90.176 0 0 0-1.594 2.594c-.48.812-1.219 1.385-2.219 1.718-.042.709-.292 1.313-.75 1.813a8.8 8.8 0 0 0-1.125 1.5 78.695 78.695 0 0 1-1.906 3.25 20.123 20.123 0 0 1-2.219 2.938c-.583.208-1.073.468-1.469.78a6.73 6.73 0 0 0-1.031 1c-.292.355-.573.74-.844 1.157a15 15 0 0 1-.969 1.313c-.25.25-.51.427-.78.53-.272.105-.542.188-.813.25-.271.063-.542.147-.813.25-.27.105-.51.282-.719.532-.333.458-.666.927-1 1.406-.333.48-.708.906-1.124 1.281a5.763 5.763 0 0 1-1.5 1.094c-.542.271-.98.677-1.313 1.219-.833.292-1.646.573-2.438.844-.791.27-1.729.552-2.812.844-.458.125-.896.218-1.313.28-.416.063-.895.157-1.437.282a8.03 8.03 0 0 0-1.688.563 4.815 4.815 0 0 1-1.687.437c-1.333.083-2.615 0-3.844-.25-1.229-.25-2.323-.562-3.281-.938-.042-.333-.167-.583-.375-.75-.208-.166-.25-.479-.125-.937.208-.292.552-.448 1.031-.469.48-.02.906.031 1.281.156.542-.083.98-.187 1.313-.312.333-.125.646-.26.938-.406.291-.146.583-.281.874-.406.292-.126.667-.23 1.126-.313a16.34 16.34 0 0 0 2.218-.625c.688-.25 1.49-.313 2.406-.188.126-.083.22-.27.282-.562.062-.292.156-.48.281-.563.583-.708 1.25-1.25 2-1.624.292-.5.625-.844 1-1.032.375-.187.76-.333 1.156-.437.396-.104.813-.219 1.25-.344.438-.125.865-.375 1.281-.75a50.43 50.43 0 0 1 2.25-1.906c.709-.563 1.355-1.323 1.938-2.281.25-.334.49-.709.719-1.126.229-.416.49-.854.781-1.312.167-.25.344-.458.531-.625.188-.167.386-.417.594-.75.083-.125.073-.26-.031-.406a3.22 3.22 0 0 0-.344-.407 3.22 3.22 0 0 1-.344-.406.545.545 0 0 1-.094-.468c.084-.209.084-.532 0-.97a12.802 12.802 0 0 0-.25-1.093 21.894 21.894 0 0 0-.406-2.125c-.187-.792-.364-1.417-.531-1.875-.208-.333-.385-.615-.531-.844-.146-.229-.24-.552-.281-.968a7.628 7.628 0 0 1 .03-1.563 4.352 4.352 0 0 0-.03-1.375 33.35 33.35 0 0 0-.626-2.563 3.49 3.49 0 0 0-.53-1.156 4.615 4.615 0 0 1-.594-1.156c0-.5-.115-1.052-.344-1.656-.23-.604-.48-1.219-.75-1.844-.271-.625-.521-1.24-.75-1.844-.23-.604-.365-1.156-.406-1.656a3.8 3.8 0 0 0-1-1 22.951 22.951 0 0 0-1.188-.781c-.375-.23-.698-.438-.969-.625-.27-.188-.406-.386-.406-.594 0-.25.052-.427.156-.531.104-.104.219-.188.344-.25.125-.063.26-.136.406-.219.146-.083.281-.25.406-.5a2.518 2.518 0 0 1 1-.188c.376 0 .771.032 1.188.094.417.063.823.125 1.219.188.396.062.781.073 1.156.031a9.33 9.33 0 0 1 2.156 0c.73.083 1.448.146 2.156.188.042.208.188.322.438.343.25.021.5.021.75 0 .25-.02.49-.01.719.032.229.041.364.145.406.312zm36.375 31.688c-.292-.042-.719.062-1.281.312-.563.25-1.073.458-1.531.625-.459.125-.959.27-1.5.438A4.123 4.123 0 0 1 121 65a2.878 2.878 0 0 1-.938-.281c-.291-.146-.562-.198-.812-.156a.777.777 0 0 0-.563.25 1.569 1.569 0 0 1-.624.374c-.459.167-1 .303-1.626.407a7.676 7.676 0 0 1-1.812.094c-.583-.042-1.052-.198-1.406-.47-.354-.27-.469-.697-.344-1.28.083-.376.24-.76.469-1.157.229-.396.448-.843.656-1.343.333-.876.583-1.803.75-2.782.167-.979.396-1.76.688-2.343a3.1 3.1 0 0 1 .75-.938c.333-.292.52-.604.562-.938.042-.25 0-.458-.125-.624-.125-.167-.188-.396-.188-.688 0-.208.053-.427.157-.656.104-.23.177-.51.219-.844a3.292 3.292 0 0 0 0-.906c-.042-.271-.021-.51.062-.719.083-.25.208-.49.375-.719.167-.229.344-.458.531-.687.188-.23.344-.49.469-.782.125-.291.188-.624.188-1 0-.208.062-.552.187-1.03.125-.48.167-.844.125-1.094-.125-.876-.115-1.605.031-2.188a8.42 8.42 0 0 1 .563-1.594c.229-.479.479-.968.75-1.468.27-.5.468-1.105.594-1.813.166-.875.291-1.792.374-2.75a13.1 13.1 0 0 1 .47-2.594c.228-.77.583-1.385 1.062-1.843.479-.459 1.218-.626 2.219-.5.416.5.697.979.843 1.437.146.458.365.98.656 1.563.126.333.459.624 1 .874.542.25.917.521 1.126.813.208.25.447.51.718.781.271.271.448.552.531.844.126.542.157 1.167.094 1.875-.062.708-.114 1.354-.156 1.938-.042.333-.083.677-.125 1.03a4.597 4.597 0 0 1-.188.907 4.375 4.375 0 0 1-.28.75 2.487 2.487 0 0 0-.22.625 8.59 8.59 0 0 0-.156 1.094 4.34 4.34 0 0 1-.156.906 4.755 4.755 0 0 1-.906 1.625c-.396.458-.698 1-.906 1.625a4.354 4.354 0 0 0-.282 1c-.062.375-.135.73-.219 1.063-.25.916-.52 1.958-.812 3.124-.292 1.167-.396 2.292-.313 3.376a10.668 10.668 0 0 1 1.563-.281c.208-.022.448-.011.719.03.27.042.614.105 1.031.188.625.167 1.312.375 2.063.625.75.25 1.52.417 2.312.5.583.042 1.177.042 1.781 0a8.45 8.45 0 0 1 1.781.063 30.33 30.33 0 0 1 1.657.28c.52.105 1.01.115 1.469.032.208-.083.364-.156.468-.219.104-.062.24-.114.406-.156.667-.125 1.438-.115 2.313.031.875.146 1.687.26 2.438.344.125 0 .312-.01.562-.031.25-.021.5-.021.75 0 .25.02.458.093.625.218.167.126.25.313.25.563-.042.375-.323.667-.844.875-.52.208-.948.354-1.281.438-.5.125-.969.187-1.406.187a5.813 5.813 0 0 0-2.625.656 4.345 4.345 0 0 1-1.094.407.51.51 0 0 1-.375.093c-.125-.02-.27-.01-.438.032a5.19 5.19 0 0 0-.875.406c-.333.187-.604.302-.812.343-.75.167-1.552.126-2.406-.124a6.843 6.843 0 0 0-2.594-.25 5.732 5.732 0 0 0-1 .218c-.333.104-.667.198-1 .282a8.433 8.433 0 0 1-1 .187 4.58 4.58 0 0 0-.875.188l-1.75.124zm49.438-28.626c-1.126.542-2.25.813-3.375.813-1.126 0-2.375-.042-3.75-.125-.376 0-.782.02-1.22.063-.437.041-.843.083-1.218.124-1.958.209-3.604.948-4.938 2.22-1.333 1.27-2.312 2.864-2.937 4.78a26.92 26.92 0 0 0-.5 1.938c-.125.583.146.917.813 1 .416.083.833.083 1.25 0 .416-.083.843-.198 1.28-.344.438-.146.865-.281 1.282-.406a4.33 4.33 0 0 1 1.25-.188.93.93 0 0 1 .469.126.93.93 0 0 0 .469.124c.708.084 1.458.032 2.25-.156.791-.187 1.52-.198 2.187-.031.125.042.24.115.344.219.104.104.26.198.469.281.541.208 1.187.344 1.937.406.75.063 1.354.198 1.813.407.208.083.416.24.625.468.208.23.312.386.312.469 0 .458-.27.75-.813.875-.541.125-1 .208-1.375.25a4.016 4.016 0 0 1-1 0 2.706 2.706 0 0 0-1 .063c-.583.083-1.145.197-1.687.343-.542.146-1.125.323-1.75.532-.708.25-1.375.552-2 .906a5.33 5.33 0 0 1-2.063.656 4.912 4.912 0 0 1-1.562 0 5.305 5.305 0 0 0-1.625 0 2.817 2.817 0 0 0-.594.188 2.817 2.817 0 0 1-.594.187 8.728 8.728 0 0 1-.843.156.837.837 0 0 0-.438.157 1.485 1.485 0 0 0-.312.374l-.469.75a7.732 7.732 0 0 0-.625 2.407c-.083.854-.167 1.76-.25 2.718.458.459.896.823 1.313 1.094.416.271 1.062.407 1.937.407.458 0 .823-.053 1.094-.157.27-.104.635-.177 1.094-.218.458 0 .916.03 1.375.093.458.063.979.073 1.562.032 1.208-.084 2.23-.24 3.063-.47.833-.228 1.854-.301 3.062-.218.25 0 .698.02 1.344.063.646.041 1.302.093 1.969.156.666.062 1.26.156 1.78.281.522.125.782.292.782.5 0 .25-.156.51-.469.781a7.653 7.653 0 0 1-2.25 1.313c-.396.146-.656.24-.781.281a4.679 4.679 0 0 1-2.063.156 8.45 8.45 0 0 0-2.187-.031 7.813 7.813 0 0 0-1.563.375c-.458.167-.916.344-1.375.531a98.82 98.82 0 0 1-1.406.563c-.479.187-1.031.302-1.656.343a28.45 28.45 0 0 0-2.125.282c-.583.104-1.27.24-2.063.406-.333.083-.645.177-.937.281-.292.104-.604.198-.938.281-1.208.25-2.51.303-3.906.157-1.396-.146-2.906-.136-4.531.031a26.523 26.523 0 0 0-2.781.469A7.56 7.56 0 0 1 143 65.5a13.05 13.05 0 0 0-.844-.094c-.27-.02-.51-.135-.719-.344.084-.333.271-.624.563-.874.292-.25.583-.48.875-.688.292-.25.573-.51.844-.781l.781-.782c.25-.333.458-.74.625-1.218.167-.48.323-.969.469-1.469.146-.5.312-.969.5-1.406.187-.438.427-.823.719-1.157-.334-.75-.323-1.604.03-2.562.355-.958.678-1.958.97-3 .083-.25.125-.5.125-.75s.041-.48.125-.688c.083-.416.27-.78.562-1.093.292-.313.48-.636.563-.969.041-.208.052-.417.03-.625-.02-.208-.01-.417.032-.625.083-.625.24-1.219.469-1.781.229-.563.385-1.073.469-1.532a2.45 2.45 0 0 0 .03-1.03 3.447 3.447 0 0 1-.03-1.032 9.85 9.85 0 0 1 .53-2.375c.272-.75.428-1.417.47-2 .041-.458-.021-.958-.188-1.5s-.333-.958-.5-1.25a3.055 3.055 0 0 0-.563-.656c-.25-.23-.5-.448-.75-.657a9.837 9.837 0 0 1-.656-.593c-.187-.188-.281-.365-.281-.532.042-.458.23-.697.563-.718.333-.021.645-.156.937-.407 1.5.042 2.927.209 4.281.5 1.354.292 2.76.48 4.219.563a5.119 5.119 0 0 0 1.688-.031 17.047 17.047 0 0 1 1.687-.219c.875-.042 1.865.083 2.969.375a9.82 9.82 0 0 0 3.281.313 72.5 72.5 0 0 1 4.125-.125c1.292 0 2.646-.042 4.063-.125.25.208.624.302 1.125.28.5-.02 1.01-.062 1.53-.124.522-.063 1-.073 1.438-.032.438.042.74.23.906.563.25.583.209 1.083-.125 1.5-.333.417-.791.687-1.375.813-.166 0-.395.02-.687.062a54.09 54.09 0 0 1-.938.125 7.811 7.811 0 0 1-.968.063h-.656zm4.125 25.438c.291-.667.541-1.302.75-1.906.208-.604.479-1.281.812-2.032.167-.416.292-.854.375-1.312.083-.458.23-.917.438-1.375.208-.375.468-.75.78-1.125.313-.375.553-.792.72-1.25.25-.708.27-1.51.062-2.406a5.471 5.471 0 0 1 .063-2.719c.208-.875.447-1.74.718-2.594.271-.854.448-1.614.531-2.281.084-.458.125-.927.125-1.406 0-.48.042-.969.125-1.469.084-.542.25-1.073.5-1.594.25-.52.396-1.01.438-1.468.083-.959-.135-1.823-.656-2.594a13.333 13.333 0 0 0-1.594-1.969.848.848 0 0 1 .406-.594c.23-.146.406-.198.531-.156.5.083 1.063.25 1.688.5s1.23.417 1.813.5c.5.083 1.052.083 1.656 0a7.294 7.294 0 0 1 1.906 0c.708.083 1.562.167 2.563.25 1 .083 1.979.125 2.937.125 1.083.042 2.125.02 3.125-.063s1.98-.062 2.938.063c.708.083 1.354.27 1.937.563.583.291 1.23.395 1.938.312a6.019 6.019 0 0 0 2.03 1.531c.772.354 1.47.802 2.095 1.344a10.492 10.492 0 0 1 2.25 2.531c.625.98 1.374 1.823 2.25 2.532 0 .333.083.645.25.937.166.292.27.625.312 1 0 .208-.042.448-.125.719-.083.27-.125.531-.125.781.042.375.167.677.375.906.208.23.292.573.25 1.032-.042 1.458-.417 2.895-1.125 4.312a37.618 37.618 0 0 1-2.125 3.75c-.458.042-.781.23-.969.563-.187.333-.427.708-.719 1.124a6.145 6.145 0 0 1-1.468 1.47 7.271 7.271 0 0 0-1.531 1.468c-.917.333-1.76.77-2.532 1.313a18.041 18.041 0 0 1-2.594 1.5 15.51 15.51 0 0 1-1.03.468A15.51 15.51 0 0 0 202.5 62c-.417.125-.812.27-1.188.438-.375.166-.729.291-1.062.374-.25.084-.51.105-.781.063a1.645 1.645 0 0 0-.781.063 5.1 5.1 0 0 0-1.563.656c-.5.312-1 .51-1.5.593a4.161 4.161 0 0 1-1.75-.124 33.896 33.896 0 0 0-1.688-.438c-.708.083-1.416.115-2.125.094a83.956 83.956 0 0 1-2.187-.094 22.562 22.562 0 0 0-2.375 0c-.833.042-1.73.146-2.688.313a3.08 3.08 0 0 0-.78.25 3.08 3.08 0 0 1-.782.25 8.594 8.594 0 0 1-1.531.124h-1.594c-.208 0-.458-.01-.75-.03-.292-.022-.573-.053-.844-.094a2.423 2.423 0 0 1-.719-.22c-.208-.103-.333-.239-.375-.406a.717.717 0 0 1 .22-.656c.187-.187.416-.354.687-.5.27-.146.552-.27.844-.375a6.46 6.46 0 0 0 .687-.281c.5-.292.927-.615 1.281-.969a3.224 3.224 0 0 1 1.281-.781zm16.625-24.188c-.334.334-.573.73-.72 1.188-.145.458-.27.948-.374 1.469-.104.52-.198 1.052-.281 1.593a9.5 9.5 0 0 1-.375 1.563c-.167.333-.334.656-.5.969a4.236 4.236 0 0 0-.375.968 11.614 11.614 0 0 0-.375 2.313c-.042.75-.167 1.542-.375 2.375-.084.458-.24.906-.47 1.344-.228.437-.385.885-.468 1.343a3.475 3.475 0 0 0 0 1.313c.083.417.083.854 0 1.313a4.564 4.564 0 0 1-.344.937c-.146.292-.26.604-.344.938-.208 1.125 0 1.947.625 2.468.626.521 1.375.886 2.25 1.094 1.5.333 2.886.24 4.157-.281 1.27-.521 2.281-1.115 3.031-1.782a67.293 67.293 0 0 0 1.688-2.03 8.9 8.9 0 0 0 1.375-2.407c.125-.333.25-.781.375-1.344.125-.562.27-1.114.437-1.656.125-.458.281-.885.469-1.281.187-.396.343-.802.469-1.219.458-1.083.635-2.24.53-3.469-.103-1.229-.322-2.198-.655-2.906a3.612 3.612 0 0 0-.594-.813c-.271-.291-.531-.583-.781-.874a10.902 10.902 0 0 1-.782-1 5.514 5.514 0 0 0-.594-.75 5.032 5.032 0 0 0-2.093-1.157 6.12 6.12 0 0 1-2.219-1.156c-.708.042-1.23.167-1.563.375a7.081 7.081 0 0 1-1.125.563zM37.093 74.439c0 .291-.083.552-.25.78-.166.23-.353.438-.562.626-.208.187-.427.385-.656.594a2.35 2.35 0 0 0-.531.687c-.042.083-.052.219-.032.406a.685.685 0 0 1-.093.469 13.55 13.55 0 0 1-.875 1.906 21.335 21.335 0 0 0-1 2.094c-.125.333-.26.677-.407 1.031a6.902 6.902 0 0 1-.53 1.031c-.167.334-.365.678-.594 1.032-.23.354-.365.656-.407.906a.845.845 0 0 0 .094.594c.104.187.156.385.156.594a9.045 9.045 0 0 1-.375 1.312 8.436 8.436 0 0 0-.375 1.375 67.608 67.608 0 0 0-.218 1.531 8.5 8.5 0 0 1-.282 1.344c-.208.583-.437 1.26-.687 2.031-.25.771-.438 1.573-.563 2.406 1.459 0 2.865-.187 4.219-.562a65.09 65.09 0 0 0 3.844-1.188c.291.084.729.146 1.312.188.584.042 1.198.063 1.844.063.646 0 1.302-.01 1.969-.032.666-.02 1.25-.073 1.75-.156.5-.042 1.104-.156 1.812-.344.709-.187 1.167-.406 1.375-.656.334-.458.563-1.125.688-2s.291-1.708.5-2.5c.208-.708.458-1.396.75-2.063.291-.666.52-1.312.687-1.937.084-.25.115-.51.094-.781-.02-.271.01-.531.094-.781.208-.709.52-1.396.937-2.063.417-.667.688-1.23.813-1.688.125-.458.208-.937.25-1.437.041-.5.093-.98.156-1.438.063-.458.146-.885.25-1.28.104-.397.302-.74.594-1.032a3.49 3.49 0 0 0 .468-.281c.146-.104.303-.219.47-.344.54.167 1.02.25 1.437.25.416 0 .823-.031 1.218-.094a7.202 7.202 0 0 0 1.157-.281c.375-.125.812-.25 1.312-.375.375.333.667.698.875 1.094.209.396.604.614 1.188.656.25 0 .5-.083.75-.25.25-.167.541-.292.875-.375.583-.167 1.302-.365 2.156-.594.854-.229 1.594-.344 2.219-.344a6.42 6.42 0 0 1 1.937.157c.584.146 1.23.114 1.938-.094.166.167.312.354.437.563.125.208.125.52 0 .937a7.984 7.984 0 0 1-1.281.844l-1.313.687c-.437.23-.854.469-1.25.719-.395.25-.76.562-1.093.938-.584.666-1.073 1.458-1.469 2.374a30.687 30.687 0 0 1-1.281 2.626 7.424 7.424 0 0 1-.563.843c-.208.271-.354.51-.437.719a7.843 7.843 0 0 0-.5 2.031c-.084.73-.209 1.448-.375 2.156a26.057 26.057 0 0 1-.563 2.032 10.656 10.656 0 0 0-.437 2.031c.541.208 1.062.26 1.562.156.5-.104 1.084-.135 1.75-.094.334.042.667.105 1 .188.334.083.709.146 1.125.188a8.912 8.912 0 0 0 1.688-.032 8.335 8.335 0 0 1 1.625-.031c.208 0 .479.01.812.031.334.021.656.073.969.156.313.084.583.198.813.344.229.146.343.344.343.594.042.333-.218.677-.781 1.031-.563.354-1.031.615-1.406.781-.709.334-1.386.521-2.031.563-.646.042-1.428.167-2.344.375a3.077 3.077 0 0 0-1.531.656c-.438.354-1.01.594-1.72.719-.708.125-1.312.198-1.812.219-.5.02-1.166.073-2 .156-.833 1.083-1.385 2.344-1.656 3.781a99.325 99.325 0 0 0-.719 4.344 47.714 47.714 0 0 1-.625 3.281 28.744 28.744 0 0 1-.875 3.094 3.59 3.59 0 0 1-.718 1.469c-.355.437-.698.968-1.032 1.594-.208.458-.385.916-.531 1.374-.146.459-.344.834-.594 1.126-.333.333-.791.583-1.375.75-.583.166-1.062.374-1.437.624-.5.417-.906.834-1.219 1.25-.313.417-.76.792-1.344 1.126-.416.041-.76.062-1.031.062-.27 0-.51-.02-.719-.063a2.04 2.04 0 0 1-.593-.218 4.437 4.437 0 0 1-.657-.469c-.083-.25-.104-.469-.062-.656.041-.188.02-.427-.063-.719-.25-.083-.448-.01-.593.219-.146.229-.386.344-.72.344-.333 0-.666-.198-1-.594-.333-.396-.478-.781-.437-1.156.042-.292.146-.636.313-1.032.166-.396.291-.823.375-1.281.083-.375.156-.781.218-1.219.063-.437.157-.843.282-1.219.083-.208.187-.416.312-.624.125-.209.209-.438.25-.688a8.714 8.714 0 0 0 .157-1.906 7.273 7.273 0 0 1 .156-1.781 3.54 3.54 0 0 1 .281-.563 3.54 3.54 0 0 0 .281-.563c.25-.708.5-1.395.75-2.062.25-.667.48-1.333.688-2 .208-.708.448-1.417.718-2.125.271-.708.344-1.396.22-2.063a4.864 4.864 0 0 0-1.563.126c-.5.125-1 .27-1.5.437-.5.167-1.021.323-1.563.469a6.463 6.463 0 0 1-1.687.219c-.25 0-.594-.021-1.032-.063a119.93 119.93 0 0 0-1.406-.125c-.5-.042-.99-.052-1.468-.031-.48.02-.865.052-1.157.094-.5.083-1.01.25-1.531.5-.52.25-1.073.458-1.656.624a8.413 8.413 0 0 0-1.594.5 6.25 6.25 0 0 1-1.469.438c-.458.292-.791.719-1 1.281a14.822 14.822 0 0 0-.531 1.781 10.758 10.758 0 0 1-.563 1.75c-.229.542-.614.917-1.156 1.126.25.25.354.76.313 1.53-.042.772-.125 1.49-.25 2.157a20.977 20.977 0 0 1-.844 3.188c-.354 1-.76 1.895-1.219 2.687a32.53 32.53 0 0 0-1.906.906c-.604.313-1.323.51-2.156.594a.662.662 0 0 1-.407-.469 7.28 7.28 0 0 1-.156-.719c-.208.5-.49.907-.843 1.22-.355.312-.74.593-1.157.843-.416.25-.823.5-1.218.75-.396.25-.72.583-.97 1-.958 0-1.79.01-2.5.031a4.271 4.271 0 0 1-2.062-.469 3.342 3.342 0 0 1-.031-1.968c.188-.646.323-1.26.406-1.844a2.652 2.652 0 0 0 0-.813c-.041-.25-.041-.5 0-.75.084-.625.24-1.385.469-2.28.23-.897.49-1.678.781-2.344a2.59 2.59 0 0 1 .5-.844c.209-.23.396-.51.563-.844a4.57 4.57 0 0 0 .312-1.188 3.13 3.13 0 0 1 .313-1.062 3.44 3.44 0 0 1 .406-1.031c.188-.313.323-.636.406-.969.084-.292.115-.583.094-.875-.02-.292.01-.604.094-.938.041-.208.125-.395.25-.562.125-.167.208-.354.25-.563a2.25 2.25 0 0 0-.313-1.343c-.25-.438-.479-.865-.687-1.281a3.65 3.65 0 0 1-.375-1.313c-.042-.458.166-.937.625-1.438.416-.125.843-.24 1.281-.343.438-.104.802-.26 1.094-.469.208-.833.375-1.646.5-2.438.125-.791.291-1.583.5-2.374.083-.417.218-.813.406-1.188.188-.375.323-.73.406-1.063.084-.375.104-.76.063-1.156-.042-.396 0-.76.125-1.094.083-.333.25-.604.5-.812.25-.208.437-.48.562-.813-.333-.5-.469-1.124-.406-1.874.063-.75.208-1.542.438-2.376.229-.833.49-1.677.78-2.53.292-.855.5-1.678.626-2.47a35.06 35.06 0 0 1 .625-2.312c.208-.667.708-1.083 1.5-1.25 1.5.167 2.979.094 4.437-.219 1.459-.312 2.917-.656 4.375-1.031.209-.042.323.031.344.219.02.187.115.302.281.344.292-.292.667-.51 1.125-.657a4.026 4.026 0 0 1 1.407-.187c.479.02.947.104 1.406.25.458.146.833.343 1.125.594zM102.47 93.75c.416.833.729 1.604.937 2.313.209.708.375 1.666.5 2.874.084.834.177 1.573.281 2.22.105.645.115 1.447.032 2.406a13.068 13.068 0 0 1-.313 2.093c-.166.73-.375 1.406-.625 2.031a53.94 53.94 0 0 1-1.062 2.938c-.334.833-.73 1.73-1.188 2.688-.291.541-.583.979-.875 1.312-.291.333-.604.687-.937 1.063-.084.125-.156.27-.219.437a1.215 1.215 0 0 1-.281.438c-.542.625-1.281 1.27-2.219 1.937s-1.802 1.146-2.594 1.438a4.34 4.34 0 0 1-.906.156c-.313.02-.635.073-.969.156a2.91 2.91 0 0 0-1.062.719 2.343 2.343 0 0 1-1.125.656c-.25.083-.552.156-.906.219-.355.062-.698.135-1.032.219-.833.208-1.864.416-3.094.624-1.229.209-2.364.188-3.406-.062a1.408 1.408 0 0 1-.5-.25 2.446 2.446 0 0 0-.562-.313 3.563 3.563 0 0 0-.625-.187 2.23 2.23 0 0 1-.563-.188 6.477 6.477 0 0 1-1.562-.874 6.477 6.477 0 0 0-1.563-.876 23.334 23.334 0 0 0-1.75-.906c-.583-.27-.979-.76-1.187-1.469-.709-.208-1.209-.687-1.5-1.437a9.093 9.093 0 0 0-1.063-2 1.617 1.617 0 0 0-.531-.531 1.136 1.136 0 0 1-.469-.531c-.291-.459-.52-1.198-.687-2.22a26.022 26.022 0 0 1-.313-2.593c-.041-.75.01-1.469.156-2.156a32.11 32.11 0 0 1 .5-2.031c.188-.667.396-1.313.626-1.938.229-.625.427-1.23.593-1.813.167-.708.48-1.27.938-1.687.458-.417.896-.875 1.312-1.375.167-.167.292-.354.375-.563.084-.208.209-.416.375-.624a6.205 6.205 0 0 1 1.125-1.094c.417-.313.813-.636 1.188-.969.416-.333.854-.656 1.312-.969a5.904 5.904 0 0 0 1.125-.969 6.59 6.59 0 0 0 .781-1.374 2.93 2.93 0 0 1 .907-1.188 4.345 4.345 0 0 1 1.531-.813c.563-.166 1.219-.354 1.969-.562a11.315 11.315 0 0 0 2.094-.719 7.127 7.127 0 0 1 2.218-.594c.75-.083 1.563-.135 2.438-.156.875-.02 1.74.01 2.594.094.854.083 1.666.23 2.437.438.77.208 1.448.5 2.031.874.292.167.594.417.906.75.313.334.615.646.907.938.666.667 1.24 1.344 1.719 2.031a11.12 11.12 0 0 0 1.78 1.969zm-13.625-2.813c-.167 0-.406.063-.719.188-.313.125-.625.26-.938.406a6.396 6.396 0 0 0-.843.469l-.563.375c-.5.458-.948 1.031-1.344 1.719a10.23 10.23 0 0 1-1.343 1.844 2.252 2.252 0 0 1-.656.468c-.23.104-.407.24-.532.406a7.152 7.152 0 0 0-1.531 2.75 72.903 72.903 0 0 1-.969 3c-.375 1-.729 2.125-1.062 3.376-.334 1.25-.438 2.437-.313 3.562.042.25.136.573.281.969.146.396.282.76.407 1.094.166.375.323.74.469 1.093.145.354.302.677.468.969.25.5.573 1.031.969 1.594A6.455 6.455 0 0 0 82 116.656c.52.396 1.104.688 1.75.875.646.188 1.344.177 2.094-.031.458-.167 1.02-.427 1.687-.781.667-.354 1.271-.698 1.813-1.031.791-.5 1.354-1.01 1.687-1.532.334-.52.667-1.198 1-2.031.084-.208.198-.406.344-.594.146-.187.281-.385.406-.594.25-.458.459-.958.625-1.5.167-.541.375-1.062.625-1.562.5-1.125.813-2.208.938-3.25a61.6 61.6 0 0 0 .312-3.75c.042-.792-.01-1.375-.156-1.75s-.26-.896-.344-1.563a14.207 14.207 0 0 1-.062-1.28c0-.397-.084-.74-.25-1.032-.209-.375-.594-.625-1.156-.75-.563-.125-1.01-.354-1.344-.688a20.57 20.57 0 0 0-1.063-1.562A4.933 4.933 0 0 0 89.531 91c-.208.042-.354.042-.437 0a.555.555 0 0 0-.25-.063zm51.562 2.813c.417.833.73 1.604.938 2.313.208.708.375 1.666.5 2.874.083.834.177 1.573.281 2.22.104.645.115 1.447.031 2.406a13.068 13.068 0 0 1-.312 2.093c-.167.73-.375 1.406-.625 2.031a53.94 53.94 0 0 1-1.063 2.938c-.333.833-.729 1.73-1.187 2.688-.292.541-.584.979-.875 1.312-.292.333-.604.687-.938 1.063-.083.125-.156.27-.219.437a1.215 1.215 0 0 1-.28.438c-.542.625-1.282 1.27-2.22 1.937-.937.667-1.802 1.146-2.593 1.438a4.34 4.34 0 0 1-.906.156c-.313.02-.636.073-.97.156a2.91 2.91 0 0 0-1.062.719 2.343 2.343 0 0 1-1.125.656c-.25.083-.552.156-.906.219-.354.062-.698.135-1.031.219-.834.208-1.865.416-3.094.624-1.23.209-2.365.188-3.406-.062a1.408 1.408 0 0 1-.5-.25 2.446 2.446 0 0 0-.563-.313 3.563 3.563 0 0 0-.625-.187 2.23 2.23 0 0 1-.562-.188 6.477 6.477 0 0 1-1.563-.874 6.477 6.477 0 0 0-1.562-.876 23.334 23.334 0 0 0-1.75-.906c-.584-.27-.98-.76-1.188-1.469-.708-.208-1.208-.687-1.5-1.437a9.093 9.093 0 0 0-1.062-2 1.617 1.617 0 0 0-.531-.531 1.136 1.136 0 0 1-.47-.531c-.29-.459-.52-1.198-.687-2.22a26.022 26.022 0 0 1-.312-2.593c-.042-.75.01-1.469.156-2.156a32.11 32.11 0 0 1 .5-2.031c.188-.667.396-1.313.625-1.938.23-.625.427-1.23.594-1.813.166-.708.479-1.27.937-1.687a13.75 13.75 0 0 0 1.313-1.375c.166-.167.291-.354.375-.563.083-.208.208-.416.375-.624a6.205 6.205 0 0 1 1.125-1.094c.416-.313.812-.636 1.187-.969.417-.333.854-.656 1.313-.969a5.904 5.904 0 0 0 1.125-.969 6.59 6.59 0 0 0 .781-1.374 2.93 2.93 0 0 1 .906-1.188 4.345 4.345 0 0 1 1.531-.813c.563-.166 1.22-.354 1.97-.562a11.315 11.315 0 0 0 2.093-.719 7.127 7.127 0 0 1 2.219-.594c.75-.083 1.562-.135 2.437-.156.875-.02 1.74.01 2.594.094.854.083 1.667.23 2.438.438.77.208 1.447.5 2.03.874.292.167.594.417.907.75.313.334.615.646.906.938.667.667 1.24 1.344 1.719 2.031a11.12 11.12 0 0 0 1.781 1.969zm-13.625-2.813c-.166 0-.406.063-.719.188-.312.125-.624.26-.937.406a6.396 6.396 0 0 0-.844.469l-.562.375c-.5.458-.948 1.031-1.344 1.719a10.23 10.23 0 0 1-1.344 1.844 2.252 2.252 0 0 1-.656.468c-.23.104-.406.24-.531.406a7.152 7.152 0 0 0-1.531 2.75 72.903 72.903 0 0 1-.97 3c-.374 1-.728 2.125-1.062 3.376-.333 1.25-.437 2.437-.312 3.562.041.25.135.573.281.969l.406 1.094c.167.375.323.74.469 1.093.146.354.302.677.469.969.25.5.573 1.031.969 1.594a6.455 6.455 0 0 0 1.374 1.437c.521.396 1.105.688 1.75.875.646.188 1.344.177 2.094-.031.459-.167 1.021-.427 1.688-.781.666-.354 1.27-.698 1.812-1.031.792-.5 1.354-1.01 1.688-1.532.333-.52.666-1.198 1-2.031.083-.208.198-.406.344-.594.145-.187.28-.385.406-.594.25-.458.458-.958.625-1.5.166-.541.375-1.062.625-1.562.5-1.125.812-2.208.937-3.25a61.6 61.6 0 0 0 .313-3.75c.041-.792-.01-1.375-.156-1.75s-.26-.896-.344-1.563a14.207 14.207 0 0 1-.063-1.28c0-.397-.083-.74-.25-1.032-.208-.375-.593-.625-1.156-.75s-1.01-.354-1.344-.688a20.57 20.57 0 0 0-1.062-1.562 4.933 4.933 0 0 0-1.375-1.25c-.209.042-.354.042-.438 0a.555.555 0 0 0-.25-.063zm57.125-4.75c.209.959.313 1.813.313 2.563 0 .75-.292 1.375-.875 1.875a1.33 1.33 0 0 1-.563.344 1.33 1.33 0 0 0-.562.344c-.292.291-.51.624-.656 1-.146.375-.323.729-.532 1.062a18.659 18.659 0 0 0-3.375 2.094 27.815 27.815 0 0 1-3.312 2.219 10.6 10.6 0 0 0-1.594 1.062c-.52.417-1.031.792-1.531 1.125-.209.208-.406.417-.594.625a3.456 3.456 0 0 1-.656.563 2.342 2.342 0 0 1-.938.406 4.457 4.457 0 0 0-.937.281 4.392 4.392 0 0 0-1.125 1 21.65 21.65 0 0 1-1.063 1.25c0 1.083.136 2.01.406 2.781.271.771.594 1.5.97 2.188.374.687.739 1.385 1.093 2.094.354.708.635 1.5.844 2.374.625.292 1.052.75 1.281 1.376.23.625.573 1.166 1.031 1.624a.947.947 0 0 0 .5.344c.209.063.396.177.563.344.208.167.375.375.5.625s.291.48.5.688c.375.333.76.614 1.156.843.396.23.76.51 1.094.844.333.333.666.687 1 1.063.333.375.791.645 1.375.812.375.708.791 1.354 1.25 1.938.458.583 1.104 1 1.937 1.25.084.333.271.614.563.843.291.23.416.469.375.719-.125.458-.5.719-1.125.781-.625.063-1.344.052-2.156-.031a21.713 21.713 0 0 1-2.375-.375c-.771-.167-1.344-.27-1.72-.313a1.453 1.453 0 0 0-.28-.218 1.453 1.453 0 0 1-.282-.219c-.958-.083-1.77-.292-2.437-.625a28.782 28.782 0 0 1-1.938-1.063 19.37 19.37 0 0 0-.937-1.562c-.334-.5-.73-.958-1.188-1.375 0-.333-.052-.625-.156-.875-.104-.25-.156-.583-.156-1-.334-.25-.667-.49-1-.719-.334-.229-.771-.385-1.313-.469a7.56 7.56 0 0 1-.875-1.906 5.776 5.776 0 0 0-1-1.906.861.861 0 0 0-.344-.375c-.145-.083-.26-.23-.343-.438a1.968 1.968 0 0 1-.094-.78c.02-.272-.01-.511-.094-.72-.125-.625-.343-1.156-.656-1.593a10.47 10.47 0 0 1-.844-1.406c-.083-.959-.354-1.48-.812-1.563-.459-.083-.969.031-1.531.344a10.36 10.36 0 0 0-1.657 1.156c-.541.458-.958.77-1.25.938-.291.458-.5 1.062-.625 1.812s-.312 1.458-.562 2.125a1.392 1.392 0 0 1-.344.438c-.146.125-.302.354-.469.687-.333.667-.573 1.52-.719 2.563-.145 1.041-.385 1.979-.718 2.812-.25.792-.834 1.25-1.75 1.375-.917.125-1.75-.062-2.5-.563-.334.209-.636.417-.906.626a1.45 1.45 0 0 1-.907.312c-.458-.042-.896-.24-1.312-.594-.417-.354-.813-.593-1.188-.719-.041-.625 0-1.26.125-1.906.125-.646.271-1.26.438-1.844.125-.625.26-1.229.406-1.812a39.06 39.06 0 0 0 .406-1.813c.084-.291.156-.583.219-.874.063-.292.135-.563.219-.813.083-.25.208-.48.375-.688.166-.208.291-.437.375-.687.083-.25.104-.5.062-.75-.041-.25-.062-.5-.062-.75.083-.5.229-.98.437-1.438.209-.458.459-.854.75-1.187.042-.958.156-1.844.344-2.656.188-.813.396-1.594.625-2.344.23-.75.458-1.51.688-2.281.229-.771.406-1.573.53-2.406.5-.876.98-1.938 1.438-3.188.209-.542.386-1.125.531-1.75.146-.625.303-1.208.47-1.75.166-.542.385-1.02.655-1.438.271-.416.657-.729 1.157-.937.208-.708.614-1.333 1.219-1.875.604-.542 1.322-.604 2.156-.188.166.167.302.386.406.657.104.27.198.541.281.812.084.271.177.531.281.781.105.25.26.459.47.626.333.291.708.437 1.124.437.417 0 .813.125 1.188.375.208.542.302 1.042.281 1.5-.02.458-.115.906-.281 1.344-.167.437-.354.864-.563 1.281a7.82 7.82 0 0 0-.5 1.25 1.924 1.924 0 0 0-.125.719c0 .27-.041.51-.125.719a7.436 7.436 0 0 0-.219.624 7.436 7.436 0 0 1-.218.626c-.125.708-.24 1.322-.344 1.843-.104.521-.406.969-.906 1.344.208.542.208.958 0 1.25-.209.292-.334.687-.375 1.188a6.231 6.231 0 0 0 1.687-1c.5-.417.99-.844 1.469-1.282.48-.437.98-.864 1.5-1.281a7.906 7.906 0 0 1 1.781-1.063c.209 0 .427-.01.656-.03.23-.022.448.01.657.093a3.79 3.79 0 0 0 .875-.75c.25-.292.479-.583.687-.875.25-.25.469-.531.656-.844.188-.312.407-.614.657-.906a6.497 6.497 0 0 1 1.344-.938c.479-.25.947-.541 1.406-.874a3.71 3.71 0 0 0 1.062-1.157c.25-.437.584-.823 1-1.156.667-.5 1.396-.927 2.188-1.281a9.882 9.882 0 0 0 2.25-1.406A14.336 14.336 0 0 1 179.938 87a94.396 94.396 0 0 1 2.406-1.25c.25-.125.5-.135.75-.031.25.104.52.26.812.469zm19.188 8.688c.375.167.625.385.75.656s.219.552.281.844c.063.292.135.583.219.875.083.292.291.52.625.688.083.083.229.187.437.312.209.125.438.26.688.406.25.146.49.271.719.375.229.104.406.136.53.094.25-.042.48-.23.688-.563.209-.333.386-.718.531-1.156.146-.437.24-.885.282-1.344.041-.458.02-.833-.063-1.124-.083-.126-.312-.303-.687-.532a6.424 6.424 0 0 0-.875-.469 9.673 9.673 0 0 1-1.625-.75 9.673 9.673 0 0 0-1.625-.75 3.127 3.127 0 0 1-.781-.406c-.271-.187-.532-.281-.782-.281-.166-.042-.354-.01-.562.094a1.387 1.387 0 0 1-.625.156c-.25.042-.552.052-.906.031a6.46 6.46 0 0 0-1.094.031c-.375.042-.76.105-1.156.188-.396.083-.74.23-1.032.438-.541.458-.927.968-1.156 1.53-.23.563-.531 1.199-.906 1.907a2.3 2.3 0 0 1-.438.563 1.023 1.023 0 0 0-.312.75c0 .166.073.312.219.437.145.125.26.312.343.563.125.25.209.51.25.78.042.272.104.511.188.72.125.125.25.24.375.343.125.104.229.198.312.281.125.126.219.271.281.438a.75.75 0 0 0 .282.375l1.094.656c.52.313 1.01.51 1.468.594.792.167 1.51.427 2.156.781.646.354 1.282.656 1.907.906.458.209.823.448 1.094.72.27.27.51.54.718.812.209.27.427.531.656.781.23.25.553.437.97.563.208.083.395.124.562.124.166 0 .354.042.562.126.209.083.417.218.625.406.209.187.438.385.688.594.166.166.323.343.469.53.145.188.26.365.343.532.125.25.209.573.25.969.042.396.063.718.063.969.041 1 .02 1.791-.063 2.374a6.655 6.655 0 0 1-.437 1.626c-.209.5-.469 1-.781 1.5-.313.5-.657 1.145-1.032 1.937-.541.25-1.104.531-1.687.844a9.84 9.84 0 0 0-1.5.969c-.209.166-.5.374-.875.624s-.709.417-1 .5c-.584.209-1.292.334-2.125.376a8.137 8.137 0 0 0-2.313.437c-.416.125-.906.146-1.469.063a6.493 6.493 0 0 0-1.53-.063c-.542.083-1 .177-1.376.281-.375.104-.812.115-1.312.031-.584-.083-1.23-.302-1.938-.656a24.53 24.53 0 0 1-1.875-1.031 1.26 1.26 0 0 1-.5-.344 2.019 2.019 0 0 0-.5-.406 3.054 3.054 0 0 0-.875-.344 1.872 1.872 0 0 1-.812-.406c-.25-.208-.48-.406-.688-.594a16.401 16.401 0 0 1-.625-.594c-.5-.333-1.052-.677-1.656-1.03-.604-.355-1.031-.72-1.281-1.094-.167-.209-.26-.49-.281-.844a2.632 2.632 0 0 0-.282-1.031 1.704 1.704 0 0 0-.437-.75c-.209-.209-.334-.417-.375-.626-.125-.583-.063-1.229.187-1.937s.48-1.312.688-1.813c.791-.125 1.448-.052 1.969.22.52.27.968.635 1.343 1.093.375.458.709.969 1 1.531.292.563.584 1.052.875 1.469.334.542.854.958 1.563 1.25.708.292 1.396.583 2.062.875.25.125.49.24.719.344.23.104.448.198.656.281.542.208 1.01.427 1.406.656.396.23.823.365 1.282.406.416 0 .823-.03 1.219-.093.395-.063.843-.136 1.343-.219.5-.167 1-.24 1.5-.219.5.021.98-.073 1.438-.281.541-.208.854-.458.937-.75.084-.292.271-.687.563-1.188-.167-.791-.354-1.354-.563-1.687-.208-.333-.583-.73-1.125-1.188a2.683 2.683 0 0 0-.719-.406 4.623 4.623 0 0 1-.718-.344 44.296 44.296 0 0 0-2.875-1.624 11.495 11.495 0 0 0-3.438-1.126 16.029 16.029 0 0 1-2.469-1.03c-.854-.438-1.468-1.032-1.843-1.782a1.055 1.055 0 0 1-.219-.5 2.312 2.312 0 0 0-.156-.563 9.266 9.266 0 0 0-1.406-2.374 6.089 6.089 0 0 1-1.22-2.563 2.204 2.204 0 0 1-.062-.906c.042-.313.094-.615.156-.906.063-.292.115-.605.157-.938.041-.333.02-.687-.063-1.063.167-.166.271-.333.313-.5.041-.166.104-.333.187-.5.167-.25.281-.51.344-.78.063-.272.24-.532.531-.782.292-.25.531-.51.719-.781.188-.271.385-.49.594-.656a1 1 0 0 1 .437-.157 1 1 0 0 0 .438-.156c.208-.125.396-.281.562-.469.167-.187.354-.364.563-.531a13.148 13.148 0 0 1 2.812-1.594 19.6 19.6 0 0 1 3.188-1.031c.166-.208.437-.385.812-.531.375-.146.781-.25 1.219-.313.438-.062.865-.114 1.281-.156.417-.042.771-.083 1.063-.125 1.291.167 2.323.375 3.094.625.77.25 1.5.51 2.187.781.688.271 1.427.531 2.219.781.791.25 1.812.459 3.062.626.5.375 1.031.822 1.594 1.343a9.576 9.576 0 0 1 1.469 1.719c.416.625.718 1.281.906 1.969.188.687.135 1.385-.156 2.094a6.56 6.56 0 0 0-.5 1.406c-.125.52-.313.99-.563 1.406-.208.333-.427.73-.656 1.188-.23.458-.49.833-.781 1.124-.584.584-1.334 1-2.25 1.25a7.461 7.461 0 0 1-2.688.25c-.25-.416-.635-.77-1.156-1.062a60.349 60.349 0 0 1-1.563-.906 9.16 9.16 0 0 1-1.437-1.063 2.693 2.693 0 0 1-.844-1.469c-.125-.708-.094-1.458.094-2.25.188-.791.635-1.354 1.344-1.687z" filter="url(#filter)"/>
  </svg>
