<svg xmlns="http://www.w3.org/2000/svg" width="613.4" height="146.2" viewBox="-56.7 1.9 613.4 146.2" style="background:0 0" preserveAspectRatio="xMidYMid">
  <defs>
    <filter id="editing-vr">
      <feFlood flood-color="#ff0" flood-opacity=".7" result="c1"/>
      <feFlood flood-color="#f0f" flood-opacity=".7" result="c3"/>
      <feComposite in="c1" in2="SourceAlpha" operator="in" result="text-c1"/>
      <feComposite in="c3" in2="SourceAlpha" operator="in" result="text-c3"/>
      <feOffset dx="-2" dy="-2" in="text-c1" result="text1"/>
      <feOffset dx="2" dy="2" in="text-c3" result="text3"/>
      <feBlend in="SourceGraphic" in2="text1" mode="multiply" result="text4"/>
      <feBlend in="text4" in2="text3" mode="multiply"/>
    </filter>
  </defs>
  <path d="M32.2-40.6q-.1-.3 0-.4v-.5q-.7-.4-1.4-.2l-1.3.3-1.6-.2L26-42l-2-.3-1.9.1q-.5.1-1.4.6l-1.4.7q-1.4.9-2 2.6L16-35l-.5.5q-.3.1-.4.5 0 .4.3.6.4.3.5.7l.7 1.9q.3.9.8 1.7.8 1.3 2.3 2 1.4.8 3 1.4l1.8.9 1.8.8 1.2.4.9.3.8.5.8.8.7.7.7.7q.7.7 1 1.3.3.6 1.1 1 .1.6.6 1 .4.4.5 1 .2.6-.1 1.1-.4.5-.3 1.2 0 .5.4.9.4.3.5.8v1.1q-.1.7-.4 1.3L34.3-8q-.1.9-.4 1.7-.2.8-.6 1.5-.5.7-1.4 1.3l-.5.2-.5.2-.5.4-.4.3-.5.1-.6.2-.6.5-.7.4q-.7.3-1 .9-.3.5-1.1.8-.7.3-1.1.8-.5.5-1 .6-1 .2-2 0-1-.3-2-.3l-2 .1q-1 .2-2.1.2l-2.5.3q-1.2.2-2.1 0l-2-.4-2.3-.6L4.2.4q-1-.4-1.5-.8l-.5-.8-.6-.8Q1-2.7 0-3.3-1-4-1.4-4.8l-.3-.7-.2-.9-.4-.8-.3-.7.2-.6.2-.6.2-1.4q0-.7.5-1.3.6 0 1.6-.6l1.9-.8q.9-.2 1.4-.1.5.1.1 1.2.6.4.9 1l.3 1.3.2 1.4.4 1.4q.3.8 1.3 1.3t1.5 1q.9 0 1.7.2l1.6.5 1.6.5q.9.3 1.9.1.3 0 .8-.6.4-.6.7-.7 1.7-.4 3-.4 1.4 0 2.5-1l1.3-1.3q.4-.7.5-1.5 0-1-.2-1.6-.3-.6-.8-1l-1.2-.7-1.3-.8-.7-.6-.6-.4q-1.3-.6-2.7-1-1.5-.4-2.8-1-.6-.3-1-1-.5-.9-1.2-1h-.6q-.4.1-.8 0-.6 0-1.4-.5l-1.2-.8-.3-.5q0-.4-.3-.6l-1-1q-.5-.5-.7-1l-.1-.7-.2-.6-.3-.4-.4-.5v-.6q0-.4-.2-.7l-.8-2q-.3-.9-.2-2.4l-.1-1.5q-.2-.6 0-1.3L3-34l.3-.9.1-.9q0-.4.2-.7l.5-.7.6-.7L6-40.1q.7-1 1.8-1.8.5-1 1.8-2 1.3-1.1 2.7-1.7l3.1-1.4q1.8-.8 3-1 1-.3 1.9-.3h4.3l2 .3 1.2.2q.6 0 1 .2l.5.3.6.2 1.4-.2q.8-.2 1.4-.1 1.3 0 2 .6l1.9 1 1 .6 1 .6.7 1L40-42l.5 1.6q.3.8.3 1.4l-.1.5v.6q0 .5.3 1.1.3.6.2 1.3 0 .5-.5.8l-.7.7q-.3.4-.4.9-.1.5-.4.8l-.5.7-.5.8q-.6.6-1.9 1.2-1.2.5-2.8.8-1.6.3-3.2.3t-2.7-.3l-.6-.4q-.3-.3-.7-.4l-.8-.2q-.4 0-.6-.2l-1.1-1.2q-.7-.9-.9-1.4-.2-.4-.2-1l.1-1.1.2-1.4q.1-.9.5-1.2l.6-.3q.4-.2.9 0 .5.1.9.7l.7 1.2.8 1.3q.4.6 1 .8.7.5 1.8.5 1 0 1.7-.3 1.2-.4 1.8-1.3.6-.8.6-1.9 0-1-.5-2-.5-1.1-1.6-1.9zm42.6 8q-.1 1-.7 1.2l-1.2.5q-.5.3-.7.8-.1.5-.5.8-.3.3-.9.5l-1 .2q-1 .4-2.1.4h-2q-.6.2-1 .6l-1.1.7-1 .3-.4.4q-.3.1-.5.4l-.5.8q-.3.6-.3 1.6l-.1 1.8-.5 1.3-.4 1.6-.1 1.1q0 .6-.2 1.1-.2.6-.6 1-.4.3-.6 1v1.6l-.7 3.3-.6 3.4-.7 2.8q-.3 1.3-.8 2.4-.5 0-1 .3l-1 .4-.9.2q-.4 0-.8.3l-1 1.1q-.8.8-1.3.9-.4.1-.8 0l-.6-.2h-2q-.3-.6-.3-1.3l.3-1.5.5-1.3q.3-.6.4-1.3l.2-1 .2-1 .6-1q.4-.4.6-1l.6-1.7.5-1.5v-1.5q-.2-.7 0-1.5l.4-.6.3-.8.3-1.5.1-1.5.3-1.3.3-1.4.4-1.5.4-1.4.1-1.4q0-.6-.3-1.4-.4-.7-1-1l-1.4-.4H48l-1.7.1-.6-.7q-.2-.5-.7-.7-.7-.2-1.6-.2-1 0-1.4-.7-.4-1 0-1.8.3-.9.8-1.3 2.4-.3 4.9 0 2.5.5 5 .4 1 0 2-.4 1-.3 2 0l1.1.4 1.1.5h1.2l1 .1 1 .2h.9l.5-.2.5-.1.8-.2h1l1 .2q1.3 0 2.6-.3l2.6-.6h1.4q.7 0 1.3.4zm7.6.4V-27q0 1 .2 1.6l.4.6q.3.1.4.4.3.7.4 1.5.1.8.6 1.4l-.4.6q-.3.2-.4.5l.8 1.2q.2.7 0 2 .5.1.7.5l.3.9.2 1q0 .4.3.7.5 0 .5-.2.1-.2.4-.2l1.3-1.8 1.4-2.2 1.4-2.1q.7-1 1.5-1.7l.5-.3.4-.4q.5-.7.6-1.8.1-1 .4-1.7.3-.9.9-1.5l1-1.5.7-1.3q.3-.5.8-.9l1-.6q.5-.2 1.4-.2l.8.1q.3.2.8.2l2.5-.2 2.6-.5q1.4-.3 2.7-.3 1.3 0 2.5.4.1.8-.6 1.2l-1.3.7-1.4 1-1.3 1-.6.9-.5.8-2 2.3q-1 1.3-1.7 3l-2 2.3q-1.2 1.1-2.3 2.6l-1 1.6-1 1.8q-1 1.4-1.6 2.6-.8 1.2-2.3 1.7 0 1-.7 1.8l-1.1 1.5-2 3.3-2.2 3q-.8.2-1.4.7l-1 1-1 1.1q-.3.7-.9 1.4l-.8.5-.8.2-.8.3-.7.5-1 1.4q-.5.8-1.1 1.3-.7.7-1.5 1.1-.8.4-1.3 1.2l-2.5.9-2.8.8-1.3.3q-.6 0-1.4.3l-1.7.5q-.8.4-1.7.5-2 .1-3.9-.3-1.8-.3-3.2-1-.1-.4-.4-.7-.3-.2-.1-.9.3-.4 1-.5.7 0 1.3.2l1.3-.3 1-.4.8-.4 1.1-.3 2.2-.7q1-.3 2.5-.2l.2-.5q.1-.5.3-.6.9-1 2-1.6.5-.8 1-1l1.2-.5 1.2-.3q.7-.2 1.3-.8l2.3-1.9q1-.8 1.9-2.3l.7-1 .8-1.4q.2-.4.5-.6l.6-.8q.1-.2 0-.4l-.4-.4-.3-.4q-.2-.2-.1-.5v-1l-.3-1q0-1-.4-2.2-.2-1.1-.5-1.8l-.5-.9q-.2-.3-.3-1v-1.5-1.4l-.6-2.5q-.2-.7-.6-1.2l-.5-1.1q0-.8-.4-1.7l-.7-1.9-.8-1.8-.4-1.6q-.4-.6-1-1l-1.2-.8-1-.7q-.4-.2-.4-.6 0-.3.2-.5l.3-.2.4-.3q.3 0 .5-.5l1-.1h1.1l1.3.2H78l2.1.3q0 .3.5.3H82q.4.1.4.4zM120.6-.8l-1.8.1-1.3.3-1.5.7-1.5.4q-.8.3-1.6.2-.5 0-.9-.3-.4-.2-.8-.1l-.6.2q-.2.3-.6.4l-1.6.4h-1.8q-1 0-1.4-.4-.6-.4-.4-1.3.1-.5.5-1.1l.6-1.4q.5-1.3.8-2.7.2-1.5.7-2.4.2-.5.7-1 .5-.4.6-.9l-.1-.6q-.2-.2-.2-.7l.1-.6.3-.9V-14q.1-.4.4-.7l.5-.7.5-.8q.2-.4.2-1l.2-1q.2-.7 0-1.1-.1-1.3.1-2.2.2-.9.6-1.6l.7-1.5q.4-.7.6-1.8.3-1.3.4-2.7.1-1.5.5-2.6.3-1.2 1-1.9.8-.6 2.3-.5.6.8.8 1.5.2.7.7 1.5.1.5 1 1 .8.3 1 .7l.8.8q.4.4.5.9.2.8.1 1.8l-.1 2-.2 1q0 .5-.2.9l-.2.8-.3.6-.1 1-.2 1q-.3 1-.9 1.6-.6.7-.9 1.6l-.3 1q0 .6-.2 1l-.8 3.2q-.4 1.8-.3 3.4l.9-.2h1.4l1 .1 2 .7 2.4.5h3.6l1.6.3q.8.2 1.5 0l.4-.2.4-.2h2.4l2.4.4H138.3q.4 0 .6.2.3.2.3.6 0 .5-.9.8l-1.2.5-1.4.2-1.4.2q-.7.1-1.3.4l-1 .4q-.3.2-.4.1h-.5l-.8.5-.9.3q-1 .3-2.4-.1-1.3-.4-2.6-.3l-1 .3-1 .2-1 .2q-.5 0-.8.2zm47.7-28.5q-1.7.8-3.4.8l-3.8-.1H160l-1.2.2q-3 .3-5 2.2-2 2-2.9 4.8l-.5 2q-.2.8.8 1h1.3l1.3-.4 1.2-.4 1.3-.2.5.1.4.1q1 .2 2.3-.1 1.2-.3 2.2 0 .2 0 .3.2l.5.3q.8.3 2 .4 1 0 1.7.4.3 0 .7.4l.3.5q0 .7-.8.9l-1.4.2h-2l-1.7.4-1.8.6q-1 .3-2 .9-.9.5-2 .6-.8.2-1.6 0-.7-.1-1.6 0l-.6.2-.6.2-.8.2-.5.1-.3.4-.5.7q-.5 1.2-.6 2.4l-.2 2.8q.7.7 1.3 1 .6.5 2 .5.6 0 1-.2t1.1-.2h1.4q.7.2 1.5.1 1.8-.1 3.1-.5 1.3-.3 3-.2h1.4l2 .2 1.8.3q.7.2.7.5 0 .4-.4.8l-1 .8-1.3.5-.8.3q-1 .3-2 .2-1-.2-2.2 0-.9 0-1.6.3l-1.3.5-1.5.6q-.7.3-1.6.3l-2.1.3-2.1.4-1 .3-.9.3q-1.8.4-3.9.1-2-.2-4.5 0l-2.8.5q-1.2.3-2.5.2h-.8q-.4-.1-.7-.4.1-.5.5-1l1-.6.8-.8.7-.8.7-1.2.4-1.5.5-1.4q.3-.6.8-1.1-.6-1.1 0-2.6l1-3v-.7q0-.4.2-.7.1-.6.6-1.1.4-.5.5-1v-.6-.6q.2-1 .6-1.8l.4-1.5q.2-.5 0-1V-23q.2-1.3.6-2.4.4-1.1.4-2l-.2-1.5q-.2-.8-.5-1.2l-.5-.7-.8-.6-.6-.6q-.3-.3-.3-.6 0-.6.6-.7.4 0 .9-.4 2.2 0 4.3.5 2 .5 4.2.6h1.7l1.7-.3q1.3 0 3 .4 1.6.4 3.2.3l4.1-.1 4.1-.1q.4.3 1.1.2h1.6q.7-.2 1.4-.1.7 0 .9.5.4 1-.1 1.6-.5.6-1.4.8h-.7l-1 .1-.9.1h-.7zm4 25.4l.8-1.9.8-2q.3-.6.4-1.3l.4-1.4.8-1.1q.5-.6.8-1.3.3-1 0-2.4-.3-1.3 0-2.7l.8-2.6q.4-1.3.5-2.3.2-.6.2-1.4v-1.4l.6-1.6.4-1.5q.1-1.4-.6-2.6l-1.6-2q0-.3.4-.5.3-.3.5-.2.8.1 1.7.5 1 .4 1.8.5H184.6l2.5.3h9l2 .6q.8.5 1.9.4.9 1 2 1.5 1.2.5 2.1 1.3 1.3 1 2.3 2.6 1 1.4 2.2 2.5 0 .5.3 1l.3 1-.1.6-.2.8q.1.6.4 1 .3.3.3 1-.1 2.1-1.2 4.3-1 2.1-2 3.7-.8 0-1 .6l-.8 1.1q-.6.9-1.4 1.5-.9.6-1.6 1.5-1.3.5-2.5 1.3L196.5-3l-1 .4-1 .5-1.3.4-1 .4q-.4.1-.8 0l-.8.1q-.8.2-1.5.7-.8.5-1.5.6-1 .1-1.8-.1l-1.7-.5q-1 .2-2.1.1h-4.6l-2.7.2-.7.3-.8.2q-.7.2-1.5.2H169.3l-.8-.2-.8-.2q-.3-.1-.3-.4 0-.4.2-.6l.7-.5.8-.4.7-.3q.8-.4 1.3-1 .5-.5 1.3-.8zM189-27.9q-.5.5-.7 1.1l-.4 1.5-.3 1.6-.3 1.6-.6 1-.3 1-.4 2.2q0 1.1-.4 2.4-.1.7-.4 1.3-.4.7-.5 1.4v2.6l-.4 1-.3.9q-.3 1.7.6 2.5 1 .7 2.3 1 2.2.5 4.1-.2 2-.8 3-1.8l1.8-2q.8-1.1 1.3-2.4l.4-1.4.4-1.7.5-1.2.5-1.3q.7-1.6.5-3.4-.2-1.9-.7-3l-.5-.7-.8-1q-.5-.4-.8-1l-.6-.7q-.9-.8-2-1.1-1.3-.4-2.3-1.2-1 0-1.6.4l-1.1.6zm66.4-18.7q0 .5-.2.8l-.6.6-.6.6-.6.7v.9l-1 2-1 2-.4 1-.5 1-.6 1-.4 1v.6q.3.3.3.6l-.4 1.3-.4 1.4-.2 1.5-.3 1.4-.7 2q-.4 1.1-.6 2.4 2.2 0 4.3-.6 2-.5 3.8-1.2.4.2 1.3.2h3.9l1.7-.1q.7 0 1.8-.3 1-.3 1.4-.7.5-.7.7-2 .1-1.3.5-2.5l.7-2 .7-2q.1-.4 0-.8l.2-.8q.3-1 1-2 .6-1 .7-1.7l.3-1.5.1-1.4.3-1.3q.1-.6.6-1l.5-.3.4-.3 1.5.2h1.2l1.1-.4 1.4-.3.8 1q.3.7 1.2.7l.8-.2q.3-.3.8-.4l2.2-.6q1.3-.3 2.2-.3 1-.1 2 .1.8.2 1.9 0l.4.5q.2.3 0 1l-1.3.8-1.3.7-1.2.7q-.6.4-1.1 1-.9 1-1.5 2.3l-1.3 2.6-.5.9-.5.7-.5 2q0 1.1-.3 2.2l-.6 2-.4 2q.8.3 1.5.2.8-.2 1.8-.1l1 .2 1.1.2h1.7q.7-.2 1.6-.1h.8l1 .2.8.3q.4.3.4.6 0 .5-.8 1l-1.4.8q-1.1.5-2 .6-1 0-2.4.4-.9.1-1.5.6-.7.6-1.8.8l-1.8.2-2 .1q-1.2 1.6-1.6 3.8l-.8 4.4-.6 3.2-.9 3.1q-.1.8-.7 1.5l-1 1.6L271-2l-.6 1q-.5.6-1.4.8-.9.3-1.4.7-.8.6-1.3 1.2-.4.6-1.3 1.1l-1 .1h-.8l-.5-.3-.7-.5v-.6l-.1-.7q-.4-.2-.6.2-.2.3-.7.3-.5 0-1-.6T259-.3q0-.5.3-1 .3-.6.4-1.3l.2-1.2.3-1.3.3-.6.3-.7q.2-1 .1-1.9l.2-1.8.3-.5.3-.6.7-2 .7-2 .7-2.2q.4-1 .2-2h-1.5l-1.5.5-1.6.5q-.8.2-1.7.2h-1l-1.4-.2h-2.7l-1.5.6-1.6.6q-1 .2-1.6.5l-1.5.4q-.7.5-1 1.3l-.5 1.8-.6 1.8q-.3.8-1.2 1 .4.5.4 1.6l-.3 2.2q-.3 1.7-.8 3.2-.6 1.5-1.3 2.6l-1.9 1q-.9.4-2.1.5-.3 0-.4-.4l-.2-.7q-.3.7-.8 1.2l-1.2.8-1.2.8q-.6.4-1 1H230q-1 0-2-.5-.3-1 0-2l.3-1.8q.1-.4 0-.8v-.7l.5-2.3.8-2.4.5-.8.6-.8.3-1.2q0-.6.3-1.1.1-.6.4-1l.4-1v-.9l.2-1 .2-.5.3-.5q0-.7-.3-1.4l-.7-1.3q-.3-.6-.4-1.3 0-.7.6-1.4l1.3-.4q.7-.1 1.1-.4l.5-2.5.5-2.3q.1-.7.4-1.2l.4-1q.2-.6 0-1.2 0-.6.2-1.1.1-.5.5-.9.4-.3.6-.8-.5-.7-.4-1.8 0-1.2.4-2.4.3-1.3.8-2.5l.6-2.5.6-2.3q.3-1 1.5-1.3 2.3.3 4.5-.2l4.3-1q.4 0 .4.2 0 .3.3.3.4-.4 1.1-.6l1.4-.2 1.4.2 1.1.6zm65.4 19.4l1 2.3q.3 1 .4 2.8l.3 2.3q.2 1 0 2.4 0 1-.3 2-.2 1.2-.6 2l-1 3-1.2 2.7-.9 1.3-1 1q0 .3-.2.5 0 .3-.2.5-.9.9-2.3 1.9-1.4 1-2.6 1.4-.4.2-.9.2l-1 .2q-.6.2-1 .7-.4.4-1.1.6-.4.2-1 .2l-1 .3-3 .6q-1.9.3-3.4 0l-.6-.3-.5-.3-.6-.2q-.4 0-.6-.2-.8-.3-1.6-.9-.7-.6-1.5-.9l-1.8-.9q-.9-.4-1.2-1.4-1-.4-1.5-1.5-.4-1.1-1-2-.2-.3-.6-.5-.3-.2-.4-.5-.5-.7-.7-2.3-.3-1.5-.3-2.6l.1-2.1.5-2 .7-2 .6-1.8q.2-1 .9-1.7.7-.6 1.3-1.4.3-.2.4-.5l.4-.6q.4-.7 1-1.1l1.3-1 1.3-1q.7-.4 1.1-1 .5-.6.8-1.3.3-.7.9-1.2.7-.6 1.5-.8l2-.6q1-.2 2-.7 1.1-.5 2.3-.6l2.4-.1h2.6l2.5.5q1.1.3 2 .9l1 .7.8 1q1 1 1.7 2l1.8 2zm-13.6-2.9l-.7.2-1 .4-.8.5-.6.4q-.7.7-1.3 1.7-.6 1-1.4 1.8-.3.4-.6.5l-.6.4q-1 1.2-1.5 2.8l-1 3-1 3.3q-.5 2-.3 3.6 0 .4.3 1l.4 1 .4 1.2.5 1 1 1.5q.6.9 1.3 1.5.8.5 1.8.8 1 .3 2 0l1.8-.8 1.8-1q1.2-.8 1.7-1.5l1-2 .3-.7.4-.6q.4-.7.6-1.5l.7-1.5q.7-1.7 1-3.3l.2-3.7-.1-1.8q-.3-.5-.4-1.5v-1.3q0-.6-.3-1-.3-.6-1.1-.8-.9-.2-1.4-.7l-1-1.6q-.6-.7-1.4-1.2h-.5-.2zm51.6 2.9q.6 1.2.9 2.3.3 1 .5 2.8l.3 2.3v2.4q0 1-.3 2l-.6 2-1.1 3-1.2 2.7q-.4.8-.9 1.3l-.9 1-.2.5-.3.5q-.8.9-2.2 1.9-1.4 1-2.6 1.4-.4.2-1 .2l-.9.2q-.6.2-1 .7-.5.4-1.2.6-.4.2-.9.2l-1 .3-3.1.6q-1.9.3-3.4 0l-.5-.3-.6-.3-.6-.2-.6-.2q-.8-.3-1.5-.9-.8-.6-1.6-.9l-1.7-.9q-1-.4-1.2-1.4-1-.4-1.5-1.5l-1-2-.6-.5q-.4-.2-.5-.5-.4-.7-.7-2.3l-.3-2.6.2-2.1.5-2 .6-2 .6-1.8q.2-1 1-1.7l1.2-1.4q.3-.2.4-.5l.4-.6q.5-.7 1.1-1.1l1.2-1 1.3-1q.7-.4 1.1-1 .5-.6.8-1.3.3-.7 1-1.2.6-.6 1.5-.8l2-.6q1-.2 2-.7 1-.5 2.2-.6l2.5-.1h2.6l2.4.5q1.2.3 2 .9.5.2 1 .7l.9 1q1 1 1.7 2t1.8 2zM345-30.1l-.7.2-1 .4-.8.5-.5.4q-.8.7-1.4 1.7l-1.3 1.8q-.3.4-.7.5l-.5.4q-1 1.2-1.5 2.8l-1 3q-.6 1.5-1 3.3-.6 2-.4 3.6 0 .4.3 1l.4 1 .5 1.2.4 1 1 1.5q.6.9 1.4 1.5.8.5 1.7.8 1 .3 2.1 0l1.7-.8 1.8-1q1.2-.8 1.7-1.5l1-2q.1-.4.4-.7l.4-.6.6-1.5q.2-.8.6-1.5.8-1.7 1-3.3l.3-3.7q0-1.2-.2-1.8l-.3-1.5-.1-1.3q0-.6-.3-1-.3-.6-1.1-.8-.9-.2-1.4-.7l-1-1.6q-.6-.7-1.4-1.2h-.7zm57.1-4.7q.4 1.4.4 2.5 0 1.2-1 2l-.5.3q-.3 0-.5.3-.5.4-.7 1l-.5 1q-1.8 1-3.4 2.2-1.6 1.2-3.3 2.2l-1.6 1-1.5 1.2-.6.6-.7.6q-.4.3-1 .4-.4 0-.9.3-.6.4-1 1l-1.1 1.2q0 1.6.4 2.8l1 2.2 1 2q.6 1.1.9 2.4.9.5 1.2 1.4.4 1 1 1.6l.6.4q.3 0 .5.3.4.3.5.6l.5.7 1.2.9q.6.3 1 .8l1 1q.6.7 1.5.9l1.2 2q.7.8 2 1.2 0 .5.5.8.4.4.4.8-.2.6-1.1.7h-2.2l-2.4-.4-1.7-.3-.3-.2-.3-.2q-1.4-.2-2.4-.7l-2-1-.9-1.6-1.1-1.4-.2-.8q-.2-.4-.2-1l-1-.7q-.5-.4-1.3-.5l-.9-2q-.3-1-1-1.8 0-.3-.3-.4-.2-.1-.3-.4-.2-.4-.1-.8l-.1-.7q-.2-1-.7-1.6l-.8-1.4q-.1-1.5-.8-1.6-.7-.1-1.6.3l-1.6 1.2-1.3 1q-.4.6-.6 1.8l-.6 2q0 .3-.3.5l-.5.7q-.5 1-.7 2.6-.2 1.5-.7 2.8-.4 1.2-1.8 1.3-1.3.2-2.5-.5l-.9.6q-.4.3-.9.3-.7 0-1.3-.6-.6-.5-1.2-.7l.1-1.9.5-1.8.4-1.9.4-1.8.2-.8.2-.8.4-.7q.3-.3.4-.7.1-.4 0-.8v-.7q.1-.8.4-1.5.3-.7.8-1.2 0-1.4.3-2.6l.6-2.4.7-2.2.6-2.4 1.4-3.2.5-1.8.5-1.7.7-1.5q.4-.6 1.1-.9.3-1 1.2-1.9 1-.8 2.2-.2l.4.7.3.8.3.8q.1.4.4.6.5.5 1.1.5.7 0 1.2.3.4.8.3 1.5 0 .7-.3 1.4l-.5 1.3-.5 1.2-.1.7q0 .4-.2.7l-.2.7-.2.6-.4 1.8q-.1.8-.9 1.4.4.8 0 1.2-.3.5-.3 1.2.9-.4 1.6-1l1.5-1.3 1.5-1.3q.8-.6 1.8-1H383.8l.9-.7.7-.9.6-.8.7-1 1.3-.9q.8-.3 1.4-.8.7-.5 1.1-1.2.4-.6 1-1.1 1-.8 2.2-1.3 1.2-.6 2.2-1.4 1.1-1 2.4-1.6l2.4-1.3h.7l.9.5zm19.2 8.7q.6.2.8.6l.3.9.2.9q.1.4.6.6l.4.4q.4.1.7.4l.8.3q.3.2.5.1.4 0 .7-.5l.5-1.2.3-1.3v-1.2l-.8-.5-.8-.5q-1-.3-1.7-.7l-1.6-.8q-.4 0-.8-.4-.4-.3-.8-.3l-.5.1-.6.2h-2l-1.2.3q-.6 0-1 .4-.8.7-1.2 1.5l-.9 2-.4.5q-.3.3-.3.7 0 .3.2.5l.3.5.3.8q0 .4.2.7l.3.4.4.3.2.4.3.4 1.1.6q.8.5 1.5.6 1.2.3 2.1.8l2 1q.6.2 1 .6l.8.8.6.8q.4.4 1 .6l.5.1.6.1.6.4.7.6.5.6.3.5.3 1v3.3q-.1.9-.5 1.6l-.7 1.5-1 2-1.8.8-1.5 1-.8.6-1 .5q-1 .3-2.2.4-1.2 0-2.3.4-.6.2-1.4 0h-1.6l-1.4.3q-.5.2-1.3 0-.8 0-1.9-.6l-1.9-1-.5-.4-.5-.4q-.4-.3-.9-.3l-.8-.4-.6-.6-.7-.6-1.6-1q-1-.6-1.3-1.2-.3-.3-.3-.8t-.3-1q-.1-.5-.4-.8l-.4-.6q-.2-.9.2-2l.7-1.8q1.2-.2 2 .3.7.4 1.3 1 .6.7 1 1.6l.9 1.4q.5.9 1.5 1.3l2.1.9.7.3.7.3 1.4.7q.6.3 1.3.4l1.2-.1 1.3-.3 1.5-.2q.8 0 1.5-.3.8-.3.9-.7l.6-1.2q-.3-1.2-.6-1.7T417.9-9l-.7-.4-.8-.3-2.8-1.6q-1.6-.8-3.5-1.2-1.2-.3-2.4-1-1.3-.7-1.9-1.8-.2-.2-.2-.5l-.2-.5q-.5-1.3-1.4-2.4-.9-1.1-1.2-2.6v-.9l.1-.9.2-1-.1-1q.3-.2.3-.5l.2-.5q.3-.4.3-.8.1-.4.6-.8l.7-.7.6-.7.4-.1q.3 0 .5-.2l.5-.5.6-.5q1.2-1 2.8-1.6l3.2-1q.2-.3.8-.6l1.2-.3 1.3-.1 1-.1q2 .2 3.2.6l2.1.8 2.3.7q1.1.4 3 .7.8.5 1.6 1.3.9.8 1.5 1.7.6 1 .9 2 .3 1-.2 2l-.5 1.5q-.1.8-.5 1.4l-.7 1.2q-.3.7-.8 1.1-.8.9-2.2 1.3-1.4.3-2.7.2-.4-.6-1.2-1l-1.5-1q-.8-.4-1.5-1-.6-.6-.8-1.5-.2-1 0-2.2.4-1.2 1.4-1.7z" filter="url(#editing-vr)" transform="translate(33.6 106.3)"/>
  <style>
  </style>
</svg>
